<svg width="139" height="39" viewBox="0 0 139 39" fill="none" xmlns="http://www.w3.org/2000/svg">
<path d="M12.1585 21.64V24.3H7.97852V35.5H4.85852V24.3H0.678519V21.64H12.1585ZM21.3837 35.78C20.4103 35.78 19.5703 35.6467 18.8637 35.38C18.157 35.1 17.5703 34.72 17.1037 34.24C16.6503 33.7467 16.3103 33.1667 16.0837 32.5C15.8703 31.82 15.7637 31.0733 15.7637 30.26V21.64H18.8837V30C18.8837 30.56 18.9437 31.04 19.0637 31.44C19.197 31.8267 19.3703 32.1467 19.5837 32.4C19.8103 32.64 20.077 32.8133 20.3837 32.92C20.7037 33.0267 21.0503 33.08 21.4237 33.08C22.1837 33.08 22.797 32.8467 23.2637 32.38C23.7437 31.9133 23.9837 31.12 23.9837 30V21.64H27.1037V30.26C27.1037 31.0733 26.9903 31.82 26.7637 32.5C26.537 33.18 26.1903 33.7667 25.7237 34.26C25.257 34.74 24.6637 35.1133 23.9437 35.38C23.2237 35.6467 22.3703 35.78 21.3837 35.78ZM35.9643 21.48C38.0443 21.48 39.6376 21.8533 40.7443 22.6C41.851 23.3333 42.4043 24.48 42.4043 26.04C42.4043 27.0133 42.1776 27.8067 41.7243 28.42C41.2843 29.02 40.6443 29.4933 39.8043 29.84C40.0843 30.1867 40.3776 30.5867 40.6843 31.04C40.991 31.48 41.291 31.9467 41.5843 32.44C41.891 32.92 42.1843 33.4267 42.4643 33.96C42.7443 34.48 43.0043 34.9933 43.2443 35.5H39.7443C39.491 35.0467 39.231 34.5867 38.9643 34.12C38.711 33.6533 38.4443 33.2 38.1643 32.76C37.8976 32.32 37.631 31.9067 37.3643 31.52C37.0976 31.12 36.831 30.76 36.5643 30.44H35.0243V35.5H31.9043V21.84C32.5843 21.7067 33.2843 21.6133 34.0043 21.56C34.7376 21.5067 35.391 21.48 35.9643 21.48ZM36.1443 24.14C35.9176 24.14 35.711 24.1467 35.5243 24.16C35.351 24.1733 35.1843 24.1867 35.0243 24.2V27.96H35.9043C37.0776 27.96 37.9176 27.8133 38.4243 27.52C38.931 27.2267 39.1843 26.7267 39.1843 26.02C39.1843 25.34 38.9243 24.86 38.4043 24.58C37.8976 24.2867 37.1443 24.14 36.1443 24.14Z" fill="black"/>
<path d="M56.9491 35.5C56.8025 35.02 56.6358 34.5267 56.4491 34.02C56.2758 33.5133 56.1025 33.0067 55.9291 32.5H50.5291C50.3558 33.0067 50.1758 33.5133 49.9891 34.02C49.8158 34.5267 49.6558 35.02 49.5091 35.5H46.2691C46.7891 34.0067 47.2825 32.6267 47.7491 31.36C48.2158 30.0933 48.6691 28.9 49.1091 27.78C49.5625 26.66 50.0025 25.6 50.4291 24.6C50.8691 23.5867 51.3225 22.6 51.7891 21.64H54.7691C55.2225 22.6 55.6691 23.5867 56.1091 24.6C56.5491 25.6 56.9891 26.66 57.4291 27.78C57.8825 28.9 58.3425 30.0933 58.8091 31.36C59.2758 32.6267 59.7691 34.0067 60.2891 35.5H56.9491ZM53.2091 24.78C53.1425 24.98 53.0425 25.2533 52.9091 25.6C52.7758 25.9467 52.6225 26.3467 52.4491 26.8C52.2758 27.2533 52.0825 27.7533 51.8691 28.3C51.6691 28.8467 51.4625 29.42 51.2491 30.02H55.1891C54.9758 29.42 54.7691 28.8467 54.5691 28.3C54.3691 27.7533 54.1758 27.2533 53.9891 26.8C53.8158 26.3467 53.6625 25.9467 53.5291 25.6C53.3958 25.2533 53.2891 24.98 53.2091 24.78ZM67.9432 21.48C70.0232 21.48 71.6165 21.8533 72.7232 22.6C73.8299 23.3333 74.3832 24.48 74.3832 26.04C74.3832 27.0133 74.1565 27.8067 73.7032 28.42C73.2632 29.02 72.6232 29.4933 71.7832 29.84C72.0632 30.1867 72.3565 30.5867 72.6632 31.04C72.9699 31.48 73.2699 31.9467 73.5632 32.44C73.8699 32.92 74.1632 33.4267 74.4432 33.96C74.7232 34.48 74.9832 34.9933 75.2232 35.5H71.7232C71.4699 35.0467 71.2099 34.5867 70.9432 34.12C70.6899 33.6533 70.4232 33.2 70.1432 32.76C69.8765 32.32 69.6099 31.9067 69.3432 31.52C69.0765 31.12 68.8099 30.76 68.5432 30.44H67.0032V35.5H63.8832V21.84C64.5632 21.7067 65.2632 21.6133 65.9832 21.56C66.7165 21.5067 67.3699 21.48 67.9432 21.48ZM68.1232 24.14C67.8965 24.14 67.6899 24.1467 67.5032 24.16C67.3299 24.1733 67.1632 24.1867 67.0032 24.2V27.96H67.8832C69.0565 27.96 69.8965 27.8133 70.4032 27.52C70.9099 27.2267 71.1632 26.7267 71.1632 26.02C71.1632 25.34 70.9032 24.86 70.3832 24.58C69.8765 24.2867 69.1232 24.14 68.1232 24.14ZM79.0231 35.5V21.64H88.3831V24.26H82.1431V26.98H87.6831V29.54H82.1431V32.88H88.8431V35.5H79.0231ZM102.252 35.5C101.359 33.9133 100.392 32.3467 99.352 30.8C98.312 29.2533 97.2053 27.7933 96.032 26.42V35.5H92.952V21.64H95.492C95.932 22.08 96.4186 22.62 96.952 23.26C97.4853 23.9 98.0253 24.5867 98.572 25.32C99.132 26.04 99.6853 26.7933 100.232 27.58C100.779 28.3533 101.292 29.1 101.772 29.82V21.64H104.872V35.5H102.252ZM112.989 32.96C113.136 32.9733 113.302 32.9867 113.489 33C113.689 33 113.922 33 114.189 33C115.749 33 116.902 32.6067 117.649 31.82C118.409 31.0333 118.789 29.9467 118.789 28.56C118.789 27.1067 118.429 26.0067 117.709 25.26C116.989 24.5133 115.849 24.14 114.289 24.14C114.076 24.14 113.856 24.1467 113.629 24.16C113.402 24.16 113.189 24.1733 112.989 24.2V32.96ZM122.009 28.56C122.009 29.76 121.822 30.8067 121.449 31.7C121.076 32.5933 120.542 33.3333 119.849 33.92C119.169 34.5067 118.336 34.9467 117.349 35.24C116.362 35.5333 115.256 35.68 114.029 35.68C113.469 35.68 112.816 35.6533 112.069 35.6C111.322 35.56 110.589 35.4667 109.869 35.32V21.82C110.589 21.6867 111.336 21.6 112.109 21.56C112.896 21.5067 113.569 21.48 114.129 21.48C115.316 21.48 116.389 21.6133 117.349 21.88C118.322 22.1467 119.156 22.5667 119.849 23.14C120.542 23.7133 121.076 24.4467 121.449 25.34C121.822 26.2333 122.009 27.3067 122.009 28.56ZM135.187 35.5C135.041 35.02 134.874 34.5267 134.687 34.02C134.514 33.5133 134.341 33.0067 134.167 32.5H128.767C128.594 33.0067 128.414 33.5133 128.227 34.02C128.054 34.5267 127.894 35.02 127.747 35.5H124.507C125.027 34.0067 125.521 32.6267 125.987 31.36C126.454 30.0933 126.907 28.9 127.347 27.78C127.801 26.66 128.241 25.6 128.667 24.6C129.107 23.5867 129.561 22.6 130.027 21.64H133.007C133.461 22.6 133.907 23.5867 134.347 24.6C134.787 25.6 135.227 26.66 135.667 27.78C136.121 28.9 136.581 30.0933 137.047 31.36C137.514 32.6267 138.007 34.0067 138.527 35.5H135.187ZM131.447 24.78C131.381 24.98 131.281 25.2533 131.147 25.6C131.014 25.9467 130.861 26.3467 130.687 26.8C130.514 27.2533 130.321 27.7533 130.107 28.3C129.907 28.8467 129.701 29.42 129.487 30.02H133.427C133.214 29.42 133.007 28.8467 132.807 28.3C132.607 27.7533 132.414 27.2533 132.227 26.8C132.054 26.3467 131.901 25.9467 131.767 25.6C131.634 25.2533 131.527 24.98 131.447 24.78Z" fill="#5D4037"/>
<path d="M19 13.5L67.3328 2.96224C71.7431 2.0007 76.3169 2.08193 80.6902 3.19946L121 13.5" stroke="black" stroke-linecap="round"/>
</svg>
